<?xml version="1.0" ?><svg xmlns="http://www.w3.org/2000/svg" xmlns:xlink="http://www.w3.org/1999/xlink" version="1.1" viewBox="0 0 64 64" style="enable-background:new 0 0 64 64;" xml:space="preserve"><g id="basket"/><g id="ketchup"/><g id="burger"><g><path d="M61,33v-6c0-10.5-8.5-19-19-19H22C11.5,8,3,16.5,3,27v6c0,0.6,0.4,1,1,1h1.6C5.2,34.6,5,35.3,5,36c0,1.3,0.6,2.5,1.6,3.2    c-0.9,0.5-1.6,1.1-1.6,2c0,1.4,1.5,2,3.3,2.8c0.1,0,0.1,0,0.2,0.1H4c-0.6,0-1,0.4-1,1v3c0,4.4,3.6,8,8,8h42c4.4,0,8-3.6,8-8v-3    c0-0.6-0.4-1-1-1h-4.5c0.1,0,0.1,0,0.2-0.1c1.8-0.7,3.3-1.3,3.3-2.8c0-0.9-0.7-1.5-1.6-2c1-0.7,1.6-1.9,1.6-3.2    c0-0.7-0.2-1.4-0.6-2H60C60.6,34,61,33.6,61,33z M7.1,41.2c0.4-0.3,1.3-0.6,1.9-0.9c0.2-0.1,0.5-0.2,0.7-0.3h1.8l3.7,4.4    c-0.6,0-1.1,0-1.6-0.1c-0.3-0.1-0.5-0.1-0.7-0.2c0,0,0,0,0,0c-0.6-0.2-1-0.5-1.5-0.8c-0.5-0.3-0.9-0.6-1.4-0.8    c-0.3-0.1-0.6-0.2-0.9-0.4C8.4,41.8,7.5,41.5,7.1,41.2z M17,43.4L14.1,40h5.7L17,43.4z M59,48c0,3.3-2.7,6-6,6H11    c-3.3,0-6-2.7-6-6v-2h7.3c0.3,0.1,0.6,0.2,0.9,0.3c0.8,0.2,1.8,0.1,2.6,0.1c0.7,0,1.5-0.1,2.2,0c0.6,0.1,1.1,0.3,1.8,0.5    c0.8,0.3,1.7,0.6,2.7,0.7c0.9,0.1,1.8-0.1,2.6-0.2c0.8-0.1,1.5-0.2,2.1-0.2c0.6,0,1.3,0.2,2,0.4C30.1,47.8,31,48,32,48    s1.9-0.2,2.7-0.4c0.7-0.2,1.3-0.3,2-0.4c0.7,0,1.4,0.1,2.1,0.2c0.9,0.1,1.7,0.3,2.6,0.2c1-0.1,1.9-0.4,2.7-0.7    c0.6-0.2,1.2-0.4,1.8-0.5c0.7-0.1,1.5-0.1,2.2,0c0.9,0,1.8,0.1,2.6-0.1c0.3-0.1,0.6-0.2,0.9-0.3H59V48z M54.9,42.1    c-0.3,0.1-0.6,0.2-0.9,0.4c-0.5,0.2-1,0.5-1.4,0.8c-0.7,0.4-1.4,0.9-2.3,1.1c-0.6,0.1-1.3,0.1-2.1,0c-0.8,0-1.7-0.1-2.6,0    c-0.8,0.1-1.5,0.4-2.2,0.6c-0.8,0.3-1.5,0.5-2.2,0.6c-0.6,0.1-1.4-0.1-2.1-0.2c-0.8-0.1-1.7-0.3-2.6-0.2c-0.8,0-1.6,0.2-2.4,0.4    C33.4,45.8,32.7,46,32,46s-1.4-0.2-2.2-0.4c-0.8-0.2-1.5-0.4-2.4-0.4c-0.9,0-1.7,0.1-2.6,0.2c-0.8,0.1-1.5,0.3-2.1,0.2    c-0.7-0.1-1.5-0.3-2.2-0.6c-0.6-0.2-1.2-0.4-1.8-0.5l3.7-4.5h31.8c0.2,0.1,0.5,0.2,0.7,0.3c0.6,0.3,1.6,0.6,1.9,0.9    C56.5,41.5,55.6,41.8,54.9,42.1z M57,36c0,1.1-0.9,2-2,2H9c-1.1,0-2-0.9-2-2s0.9-2,2-2h46C56.1,34,57,34.9,57,36z M59,32h-4H9H5    v-5c0-9.4,7.6-17,17-17h20c9.4,0,17,7.6,17,17V32z"/><path d="M15,16c-1.7,0-3,1.3-3,3s1.3,3,3,3s3-1.3,3-3S16.7,16,15,16z M15,20c-0.6,0-1-0.4-1-1s0.4-1,1-1s1,0.4,1,1S15.6,20,15,20z    "/><path d="M49,23c-1.7,0-3,1.3-3,3s1.3,3,3,3s3-1.3,3-3S50.7,23,49,23z M49,27c-0.6,0-1-0.4-1-1s0.4-1,1-1s1,0.4,1,1S49.6,27,49,27z    "/><path d="M37,13c-1.7,0-3,1.3-3,3s1.3,3,3,3s3-1.3,3-3S38.7,13,37,13z M37,17c-0.6,0-1-0.4-1-1s0.4-1,1-1s1,0.4,1,1S37.6,17,37,17z    "/><path d="M27,23c-1.7,0-3,1.3-3,3s1.3,3,3,3s3-1.3,3-3S28.7,23,27,23z M27,27c-0.6,0-1-0.4-1-1s0.4-1,1-1s1,0.4,1,1S27.6,27,27,27z    "/></g></g><g id="eggplant"/><g id="clamp"/><g id="chicken_leg"/><g id="hot_dog"/><g id="beer"/><g id="bread"/><g id="shrimp"/><g id="pepper"/><g id="mushroom"/><g id="wine"/><g id="sausage"/><g id="ribs"/><g id="chicken"/><g id="meat"/><g id="grill"/><g id="stove"/><g id="grilled"/></svg>